{
  "accessors": [
    {
      "bufferView": 2,
      "componentType": 5126,
      "count": 11654,
      "max": [
        1.0587190389633179,
        1.6867436170578003,
        2.438091278076172
      ],
      "min": [
        -1.0509861707687378,
        0.02717781439423561,
        -0.3563857674598694
      ],
      "type": "VEC3"
    },
    {
      "bufferView": 2,
      "byteOffset": 139848,
      "componentType": 5126,
      "count": 11654,
      "max": [
        1.0,
        1.0,
        1.0
      ],
      "min": [
        -1.0,
        -1.0,
        -1.0
      ],
      "type": "VEC3"
    },
    {
      "bufferView": 1,
      "componentType": 5126,
      "count": 11654,
      "max": [
        1.1292140483856201,
        1.1144030094146729
      ],
      "min": [
        -0.09363099932670593,
        0.0010570287704467773
      ],
      "type": "VEC2"
    },
    {
      "bufferView": 0,
      "componentType": 5125,
      "count": 33099,
      "type": "SCALAR"
    }
  ],
  "asset": {
    "extras": {
      "author": "QuickDriftVR (https://sketchfab.com/QuickDriftVR)",
      "license": "CC-BY-4.0 (http://creativecommons.org/licenses/by/4.0/)",
      "source": "https://sketchfab.com/3d-models/rocket-engine-568bfa7ea4994541a65e63f8a6154838",
      "title": "Rocket Engine"
    },
    "generator": "Sketchfab-16.14.0",
    "version": "2.0"
  },
  "bufferViews": [
    {
      "buffer": 0,
      "byteLength": 132396,
      "name": "floatBufferViews",
      "target": 34963
    },
    {
      "buffer": 0,
      "byteLength": 93232,
      "byteOffset": 132396,
      "byteStride": 8,
      "name": "floatBufferViews",
      "target": 34962
    },
    {
      "buffer": 0,
      "byteLength": 279696,
      "byteOffset": 225628,
      "byteStride": 12,
      "name": "floatBufferViews",
      "target": 34962
    }
  ],
  "buffers": [
    {
      "byteLength": 505324,
      "uri": "scene.bin"
    }
  ],
  "images": [
    {
      "uri": "textures/rocket_engine_texture_baseColor.png"
    }
  ],
  "materials": [
    {
      "doubleSided": true,
      "name": "rocket_engine_texture",
      "pbrMetallicRoughness": {
        "baseColorTexture": {
          "index": 0
        },
        "metallicFactor": 0.0,
        "roughnessFactor": 0.6
      }
    }
  ],
  "meshes": [
    {
      "name": "Rocket_Engine_rocket_engine_texture_0",
      "primitives": [
        {
          "attributes": {
            "NORMAL": 1,
            "POSITION": 0,
            "TEXCOORD_0": 2
          },
          "indices": 3,
          "material": 0,
          "mode": 4
        }
      ]
    }
  ],
  "nodes": [
    {
      "children": [
        1
      ],
      "matrix": [
        1.0,
        0.0,
        0.0,
        0.0,
        0.0,
        2.220446049250313e-16,
        -1.0,
        0.0,
        0.0,
        1.0,
        2.220446049250313e-16,
        0.0,
        0.0,
        0.0,
        0.0,
        1.0
      ],
      "name": "Sketchfab_model"
    },
    {
      "children": [
        2
      ],
      "matrix": [
        0.009999999776482582,
        0.0,
        0.0,
        0.0,
        0.0,
        0.0,
        0.009999999776482582,
        0.0,
        0.0,
        -0.009999999776482582,
        0.0,
        0.0,
        0.0,
        0.0,
        0.0,
        1.0
      ],
      "name": "8ea09f04b8fd474490849ae05fecb4e0.fbx"
    },
    {
      "children": [
        3
      ],
      "name": "RootNode"
    },
    {
      "children": [
        4
      ],
      "matrix": [
        100.0,
        0.0,
        0.0,
        0.0,
        0.0,
        0.034514561775649294,
        -99.99997878493498,
        0.0,
        0.0,
        99.99997878493498,
        0.034514561775649294,
        0.0,
        0.0,
        0.0,
        0.0,
        1.0
      ],
      "name": "Rocket_Engine"
    },
    {
      "mesh": 0,
      "name": "Rocket_Engine_rocket_engine_texture_0"
    }
  ],
  "samplers": [
    {
      "magFilter": 9729,
      "minFilter": 9987,
      "wrapS": 10497,
      "wrapT": 10497
    }
  ],
  "scene": 0,
  "scenes": [
    {
      "name": "Sketchfab_Scene",
      "nodes": [
        0
      ]
    }
  ],
  "textures": [
    {
      "sampler": 0,
      "source": 0
    }
  ]
}
